<svg width="349" height="96" viewBox="0 0 349 96" fill="none" xmlns="http://www.w3.org/2000/svg">
<g filter="url(#filter0_d_2716_962)">
<path d="M35.3155 25.072V55.664C35.3155 60.4 33.9715 64.048 31.2835 66.608C28.6382 69.168 25.0542 70.448 20.5315 70.448C15.7955 70.448 11.9982 69.104 9.1395 66.416C6.28083 63.728 4.8515 59.9093 4.8515 54.96H15.7315C15.7315 56.8373 16.1155 58.2667 16.8835 59.248C17.6515 60.1867 18.7608 60.656 20.2115 60.656C21.5342 60.656 22.5582 60.2293 23.2835 59.376C24.0088 58.5227 24.3715 57.2853 24.3715 55.664V25.072H35.3155Z" fill="#F24E1E"/>
<path d="M60.4115 70.512C56.9128 70.512 53.7555 69.7653 50.9395 68.272C48.1662 66.7787 45.9688 64.6453 44.3475 61.872C42.7688 59.0987 41.9795 55.856 41.9795 52.144C41.9795 48.4747 42.7902 45.2533 44.4115 42.48C46.0328 39.664 48.2515 37.5093 51.0675 36.016C53.8835 34.5227 57.0408 33.776 60.5395 33.776C64.0382 33.776 67.1955 34.5227 70.0115 36.016C72.8275 37.5093 75.0462 39.664 76.6675 42.48C78.2888 45.2533 79.0995 48.4747 79.0995 52.144C79.0995 55.8133 78.2675 59.056 76.6035 61.872C74.9822 64.6453 72.7422 66.7787 69.8835 68.272C67.0675 69.7653 63.9102 70.512 60.4115 70.512ZM60.4115 61.04C62.5022 61.04 64.2728 60.272 65.7235 58.736C67.2168 57.2 67.9635 55.0027 67.9635 52.144C67.9635 49.2853 67.2382 47.088 65.7875 45.552C64.3795 44.016 62.6302 43.248 60.5395 43.248C58.4062 43.248 56.6355 44.016 55.2275 45.552C53.8195 47.0453 53.1155 49.2427 53.1155 52.144C53.1155 55.0027 53.7982 57.2 55.1635 58.736C56.5715 60.272 58.3208 61.04 60.4115 61.04ZM120.17 34.288V70H109.226V65.136C108.116 66.7147 106.602 67.9947 104.682 68.976C102.804 69.9147 100.714 70.384 98.4095 70.384C95.6788 70.384 93.2682 69.7867 91.1775 68.592C89.0868 67.3547 87.4655 65.584 86.3135 63.28C85.1615 60.976 84.5855 58.2667 84.5855 55.152V34.288H95.4655V53.68C95.4655 56.0693 96.0842 57.9253 97.3215 59.248C98.5588 60.5707 100.223 61.232 102.314 61.232C104.447 61.232 106.132 60.5707 107.37 59.248C108.607 57.9253 109.226 56.0693 109.226 53.68V34.288H120.17ZM138.975 40.24C140.255 38.2773 141.855 36.7413 143.775 35.632C145.695 34.48 147.828 33.904 150.175 33.904V45.488H147.167C144.436 45.488 142.388 46.0853 141.023 47.28C139.657 48.432 138.975 50.48 138.975 53.424V70H128.031V34.288H138.975V40.24ZM177.166 33.904C181.347 33.904 184.675 35.2693 187.15 38C189.667 40.688 190.926 44.4 190.926 49.136V70H180.046V50.608C180.046 48.2187 179.427 46.3627 178.19 45.04C176.952 43.7173 175.288 43.056 173.198 43.056C171.107 43.056 169.443 43.7173 168.206 45.04C166.968 46.3627 166.35 48.2187 166.35 50.608V70H155.406V34.288H166.35V39.024C167.459 37.4453 168.952 36.208 170.83 35.312C172.707 34.3733 174.819 33.904 177.166 33.904ZM232.194 51.568C232.194 52.592 232.131 53.6587 232.003 54.768H207.235C207.405 56.9867 208.109 58.6933 209.347 59.888C210.627 61.04 212.184 61.616 214.019 61.616C216.749 61.616 218.648 60.464 219.715 58.16H231.363C230.765 60.5067 229.677 62.6187 228.099 64.496C226.563 66.3733 224.621 67.8453 222.275 68.912C219.928 69.9787 217.304 70.512 214.403 70.512C210.904 70.512 207.789 69.7653 205.059 68.272C202.328 66.7787 200.195 64.6453 198.659 61.872C197.123 59.0987 196.355 55.856 196.355 52.144C196.355 48.432 197.101 45.1893 198.595 42.416C200.131 39.6427 202.264 37.5093 204.995 36.016C207.725 34.5227 210.861 33.776 214.403 33.776C217.859 33.776 220.931 34.5013 223.619 35.952C226.307 37.4027 228.397 39.472 229.891 42.16C231.427 44.848 232.194 47.984 232.194 51.568ZM220.995 48.688C220.995 46.8107 220.355 45.3173 219.075 44.208C217.795 43.0987 216.195 42.544 214.275 42.544C212.44 42.544 210.883 43.0773 209.603 44.144C208.365 45.2107 207.597 46.7253 207.299 48.688H220.995ZM252.496 70.512C249.381 70.512 246.608 69.9787 244.176 68.912C241.744 67.8453 239.824 66.3947 238.416 64.56C237.008 62.6827 236.219 60.592 236.048 58.288H246.864C246.992 59.5253 247.568 60.528 248.592 61.296C249.616 62.064 250.875 62.448 252.368 62.448C253.733 62.448 254.779 62.192 255.504 61.68C256.272 61.1253 256.656 60.4213 256.656 59.568C256.656 58.544 256.123 57.7973 255.056 57.328C253.989 56.816 252.261 56.2613 249.872 55.664C247.312 55.0667 245.179 54.448 243.472 53.808C241.765 53.1253 240.293 52.08 239.056 50.672C237.819 49.2213 237.2 47.28 237.2 44.848C237.2 42.8 237.755 40.944 238.864 39.28C240.016 37.5733 241.68 36.2293 243.856 35.248C246.075 34.2667 248.699 33.776 251.728 33.776C256.208 33.776 259.728 34.8853 262.288 37.104C264.891 39.3227 266.384 42.2667 266.768 45.936H256.656C256.485 44.6987 255.931 43.7173 254.992 42.992C254.096 42.2667 252.901 41.904 251.408 41.904C250.128 41.904 249.147 42.16 248.464 42.672C247.781 43.1413 247.44 43.8027 247.44 44.656C247.44 45.68 247.973 46.448 249.04 46.96C250.149 47.472 251.856 47.984 254.16 48.496C256.805 49.1787 258.96 49.8613 260.624 50.544C262.288 51.184 263.739 52.2507 264.976 53.744C266.256 55.1947 266.917 57.1573 266.96 59.632C266.96 61.7227 266.363 63.6 265.168 65.264C264.016 66.8853 262.331 68.1653 260.112 69.104C257.936 70.0427 255.397 70.512 252.496 70.512ZM288.184 70.512C285.069 70.512 282.296 69.9787 279.864 68.912C277.432 67.8453 275.512 66.3947 274.104 64.56C272.696 62.6827 271.906 60.592 271.736 58.288H282.552C282.68 59.5253 283.256 60.528 284.28 61.296C285.304 62.064 286.562 62.448 288.056 62.448C289.421 62.448 290.466 62.192 291.192 61.68C291.96 61.1253 292.344 60.4213 292.344 59.568C292.344 58.544 291.81 57.7973 290.744 57.328C289.677 56.816 287.949 56.2613 285.56 55.664C283 55.0667 280.866 54.448 279.16 53.808C277.453 53.1253 275.981 52.08 274.744 50.672C273.506 49.2213 272.888 47.28 272.888 44.848C272.888 42.8 273.442 40.944 274.552 39.28C275.704 37.5733 277.368 36.2293 279.544 35.248C281.762 34.2667 284.386 33.776 287.416 33.776C291.896 33.776 295.416 34.8853 297.976 37.104C300.578 39.3227 302.072 42.2667 302.456 45.936H292.344C292.173 44.6987 291.618 43.7173 290.68 42.992C289.784 42.2667 288.589 41.904 287.096 41.904C285.816 41.904 284.834 42.16 284.152 42.672C283.469 43.1413 283.128 43.8027 283.128 44.656C283.128 45.68 283.661 46.448 284.728 46.96C285.837 47.472 287.544 47.984 289.848 48.496C292.493 49.1787 294.648 49.8613 296.312 50.544C297.976 51.184 299.426 52.2507 300.664 53.744C301.944 55.1947 302.605 57.1573 302.648 59.632C302.648 61.7227 302.05 63.6 300.856 65.264C299.704 66.8853 298.018 68.1653 295.8 69.104C293.624 70.0427 291.085 70.512 288.184 70.512ZM307.167 52.08C307.167 48.4107 307.85 45.1893 309.215 42.416C310.623 39.6427 312.522 37.5093 314.911 36.016C317.3 34.5227 319.967 33.776 322.911 33.776C325.428 33.776 327.626 34.288 329.503 35.312C331.423 36.336 332.895 37.68 333.919 39.344V34.288H344.863V70H333.919V64.944C332.852 66.608 331.359 67.952 329.439 68.976C327.562 70 325.364 70.512 322.847 70.512C319.946 70.512 317.3 69.7653 314.911 68.272C312.522 66.736 310.623 64.5813 309.215 61.808C307.85 58.992 307.167 55.7493 307.167 52.08ZM333.919 52.144C333.919 49.4133 333.151 47.2587 331.615 45.68C330.122 44.1013 328.287 43.312 326.111 43.312C323.935 43.312 322.079 44.1013 320.543 45.68C319.05 47.216 318.303 49.3493 318.303 52.08C318.303 54.8107 319.05 56.9867 320.543 58.608C322.079 60.1867 323.935 60.976 326.111 60.976C328.287 60.976 330.122 60.1867 331.615 58.608C333.151 57.0293 333.919 54.8747 333.919 52.144Z" fill="black"/>
</g>
<defs>
<filter id="filter0_d_2716_962" x="0.851562" y="25.072" width="348.011" height="53.44" filterUnits="userSpaceOnUse" color-interpolation-filters="sRGB">
<feFlood flood-opacity="0" result="BackgroundImageFix"/>
<feColorMatrix in="SourceAlpha" type="matrix" values="0 0 0 0 0 0 0 0 0 0 0 0 0 0 0 0 0 0 127 0" result="hardAlpha"/>
<feOffset dy="4"/>
<feGaussianBlur stdDeviation="2"/>
<feComposite in2="hardAlpha" operator="out"/>
<feColorMatrix type="matrix" values="0 0 0 0 0 0 0 0 0 0 0 0 0 0 0 0 0 0 0.25 0"/>
<feBlend mode="normal" in2="BackgroundImageFix" result="effect1_dropShadow_2716_962"/>
<feBlend mode="normal" in="SourceGraphic" in2="effect1_dropShadow_2716_962" result="shape"/>
</filter>
</defs>
</svg>
